<?xml version="1.0" encoding="utf-8"?>
<!-- Generator: Adobe Illustrator 15.0.0, SVG Export Plug-In . SVG Version: 6.00 Build 0)  -->
<!DOCTYPE svg PUBLIC "-//W3C//DTD SVG 1.1//EN" "http://www.w3.org/Graphics/SVG/1.1/DTD/svg11.dtd">
<svg version="1.1" id="Capa_1" xmlns="http://www.w3.org/2000/svg" xmlns:xlink="http://www.w3.org/1999/xlink" x="0px" y="0px"
	 width="20px" height="20px" viewBox="0 0 20 20" enable-background="new 0 0 20 20" xml:space="preserve">
<path fill="#FFFFFF" d="M17.434,0H2.567C1.155,0,0,1.045,0,2.567v14.867C0,18.955,1.155,20,2.567,20h14.867
	C18.846,20,20,18.955,20,17.434V2.567C20,1.045,18.846,0,17.434,0z M13.669,3.123c0-0.496,0.405-0.9,0.899-0.9h2.262
	c0.495,0,0.898,0.405,0.898,0.9v2.155c0,0.495-0.403,0.9-0.898,0.9h-2.262c-0.494,0-0.899-0.405-0.899-0.9V3.123z M10.019,6.064
	c2.217,0,4.017,1.743,4.017,3.892c0,2.149-1.8,3.892-4.017,3.892c-2.218,0-4.017-1.742-4.017-3.892
	C6.002,7.807,7.801,6.064,10.019,6.064z M17.74,16.906c0,0.438-0.358,0.795-0.795,0.795H3.018c-0.437,0-0.795-0.357-0.795-0.795
	V8.458H4.06c-0.167,0.544-0.257,1.12-0.257,1.716c0,3.326,2.783,6.023,6.217,6.023c3.433,0,6.216-2.697,6.216-6.023
	c0-0.596-0.09-1.172-0.256-1.716h1.761L17.74,16.906L17.74,16.906z"/>
</svg>
