<?xml version="1.0" encoding="utf-8"?>
<!-- Generator: Adobe Illustrator 15.0.0, SVG Export Plug-In . SVG Version: 6.00 Build 0)  -->
<!DOCTYPE svg PUBLIC "-//W3C//DTD SVG 1.1//EN" "http://www.w3.org/Graphics/SVG/1.1/DTD/svg11.dtd">
<svg version="1.1" id="Capa_1" xmlns="http://www.w3.org/2000/svg" xmlns:xlink="http://www.w3.org/1999/xlink" x="0px" y="0px"
	 width="20px" height="20px" viewBox="0 0 20 20" enable-background="new 0 0 20 20" xml:space="preserve">
<g>
	<path fill="#FFFFFF" d="M15,0.002L12.406,0C9.493,0,7.609,1.932,7.609,4.92V7.19H5.002c-0.227,0-0.408,0.183-0.408,0.408v3.289
		c0,0.225,0.183,0.407,0.408,0.407h2.606v8.297C7.609,19.817,7.792,20,8.017,20h3.403c0.225,0,0.408-0.184,0.408-0.408v-8.297h3.049
		c0.227,0,0.406-0.184,0.406-0.407l0.002-3.289c0-0.108-0.043-0.211-0.119-0.288c-0.076-0.076-0.182-0.12-0.289-0.12h-3.049V5.268
		c0-0.924,0.219-1.395,1.424-1.395h1.746c0.227,0,0.408-0.184,0.408-0.408V0.412C15.406,0.186,15.225,0.004,15,0.002z"/>
</g>
</svg>
