<?xml version="1.0" encoding="utf-8"?>
<!-- Generator: Adobe Illustrator 18.0.0, SVG Export Plug-In . SVG Version: 6.00 Build 0)  -->
<!DOCTYPE svg PUBLIC "-//W3C//DTD SVG 1.1//EN" "http://www.w3.org/Graphics/SVG/1.1/DTD/svg11.dtd">
<svg version="1.1" id="Layer_1" xmlns="http://www.w3.org/2000/svg" xmlns:xlink="http://www.w3.org/1999/xlink" x="0px" y="0px"
	 viewBox="0 0 37.7 42.9" enable-background="new 0 0 37.7 42.9" xml:space="preserve">
<g>
	<path fill="#FFFFFF" d="M36.4,0H1.3C0.6,0,0,0.6,0,1.3v40.3c0,0.7,0.6,1.3,1.3,1.3h35.2c0.7,0,1.3-0.6,1.3-1.3V1.3
		C37.7,0.6,37.1,0,36.4,0z M34.2,38.9H3.6V8.6h30.6V38.9z"/>
	<path fill="#FFFFFF" d="M9.2,15.5h19.3c0.7,0,1.3-0.6,1.3-1.3v-1.1c0-0.7-0.6-1.3-1.3-1.3H9.2c-0.7,0-1.3,0.6-1.3,1.3v1.1
		C7.9,14.9,8.5,15.5,9.2,15.5z"/>
	<path fill="#FFFFFF" d="M9.2,22.4h19.3c0.7,0,1.3-0.6,1.3-1.3V20c0-0.7-0.6-1.3-1.3-1.3H9.2c-0.7,0-1.3,0.6-1.3,1.3v1.1
		C7.9,21.8,8.5,22.4,9.2,22.4z"/>
	<path fill="#FFFFFF" d="M9.2,29.2h19.3c0.7,0,1.3-0.6,1.3-1.3v-1.1c0-0.7-0.6-1.3-1.3-1.3H9.2c-0.7,0-1.3,0.6-1.3,1.3v1.1
		C7.9,28.6,8.5,29.2,9.2,29.2z"/>
	<path fill="#FFFFFF" d="M22.1,32.3h-6.4c-0.7,0-1.3,0.6-1.3,1.3v1.1c0,0.7,0.6,1.3,1.3,1.3h6.4c0.7,0,1.3-0.6,1.3-1.3v-1.1
		C23.4,32.9,22.8,32.3,22.1,32.3z"/>
</g>
</svg>
